<svg width="24" height="24" viewBox="0 0 24 24" fill="none" xmlns="http://www.w3.org/2000/svg">
<path d="M17.2002 3C18.0237 3 18.7016 2.99898 19.252 3.04395C19.814 3.08988 20.3311 3.18828 20.8164 3.43555C21.5689 3.81902 22.181 4.43109 22.5645 5.1836C22.8117 5.6689 22.9101 6.18599 22.9561 6.74805C23.001 7.29843 23 7.97632 23 8.79981V15.2002C23 16.0237 23.001 16.7016 22.9561 17.252C22.9101 17.814 22.8117 18.3311 22.5645 18.8164C22.181 19.5689 21.5689 20.181 20.8164 20.5645C20.3311 20.8117 19.814 20.9101 19.252 20.9561C18.7016 21.001 18.0237 21 17.2002 21H6.79981C5.97632 21 5.29843 21.001 4.74805 20.9561C4.18599 20.9101 3.6689 20.8117 3.1836 20.5645C2.43109 20.181 1.81902 19.5689 1.43555 18.8164C1.18828 18.3311 1.08988 17.814 1.04395 17.252C0.99898 16.7016 1 16.0237 1 15.2002V8.79981C1 7.97632 0.99898 7.29843 1.04395 6.74805C1.08988 6.18599 1.18827 5.6689 1.43555 5.1836C1.81902 4.43109 2.43109 3.81902 3.1836 3.43555C3.6689 3.18827 4.18599 3.08988 4.74805 3.04395C5.29843 2.99898 5.97632 3 6.79981 3H17.2002ZM8.40821 7.5C6.08439 7.50009 4.5 9.69611 4.5 12C4.5 14.3039 6.08439 16.4999 8.40821 16.5C9.58044 16.5 10.5929 15.9125 11.2793 15.0576C11.6251 14.627 11.5566 13.9981 11.126 13.6523C10.6954 13.3066 10.0665 13.3753 9.72071 13.8057C9.34947 14.268 8.87826 14.5 8.40821 14.5C7.51966 14.4999 6.5 13.562 6.5 12C6.5 10.438 7.51966 9.5001 8.40821 9.5C8.87826 9.5 9.34947 9.73201 9.72071 10.1943C10.0665 10.6247 10.6954 10.6934 11.126 10.3477C11.5566 10.0019 11.6251 9.37301 11.2793 8.94238C10.5929 8.0875 9.58044 7.5 8.40821 7.5ZM16.4082 7.5C14.0844 7.50009 12.5 9.69611 12.5 12C12.5 14.3039 14.0844 16.4999 16.4082 16.5C17.5804 16.5 18.5929 15.9125 19.2793 15.0576C19.6251 14.627 19.5566 13.9981 19.126 13.6523C18.6954 13.3066 18.0665 13.3753 17.7207 13.8057C17.3495 14.268 16.8783 14.5 16.4082 14.5C15.5197 14.4999 14.5 13.562 14.5 12C14.5 10.438 15.5197 9.5001 16.4082 9.5C16.8783 9.5 17.3495 9.73201 17.7207 10.1943C18.0665 10.6247 18.6954 10.6934 19.126 10.3477C19.5566 10.0019 19.6251 9.37301 19.2793 8.94238C18.5929 8.0875 17.5804 7.5 16.4082 7.5Z" fill="white"/>
</svg>
