<svg width="24" height="24" viewBox="0 0 24 24" fill="none" xmlns="http://www.w3.org/2000/svg">
<g opacity="0.7">
<path d="M2 8.8C2 7.11984 2 6.27976 2.32698 5.63803C2.6146 5.07354 3.07354 4.6146 3.63803 4.32698C4.27976 4 5.11984 4 6.8 4H17.2C18.8802 4 19.7202 4 20.362 4.32698C20.9265 4.6146 21.3854 5.07354 21.673 5.63803C22 6.27976 22 7.11984 22 8.8V15.2C22 16.8802 22 17.7202 21.673 18.362C21.3854 18.9265 20.9265 19.3854 20.362 19.673C19.7202 20 18.8802 20 17.2 20H6.8C5.11984 20 4.27976 20 3.63803 19.673C3.07354 19.3854 2.6146 18.9265 2.32698 18.362C2 17.7202 2 16.8802 2 15.2V8.8Z" stroke="white" stroke-width="2" stroke-linecap="round" stroke-linejoin="round"/>
<path d="M10.5 9.56816C9.97116 8.90954 9.22949 8.5 8.40834 8.5C6.80211 8.5 5.5 10.067 5.5 12C5.5 13.933 6.80211 15.5 8.40834 15.5C9.22949 15.5 9.97116 15.0905 10.5 14.4318" stroke="white" stroke-width="2" stroke-linecap="round"/>
<path d="M18.5 9.56816C17.9712 8.90954 17.2295 8.5 16.4083 8.5C14.8021 8.5 13.5 10.067 13.5 12C13.5 13.933 14.8021 15.5 16.4083 15.5C17.2295 15.5 17.9712 15.0905 18.5 14.4318" stroke="white" stroke-width="2" stroke-linecap="round"/>
</g>
</svg>
