<svg width="12" height="12" viewBox="0 0 12 12" fill="none" xmlns="http://www.w3.org/2000/svg">
<path fill-rule="evenodd" clip-rule="evenodd" d="M2 5.5C2.27614 5.5 2.5 5.72386 2.5 6V6.5C2.5 8.433 4.067 10 6 10C7.933 10 9.5 8.433 9.5 6.5V6C9.5 5.72386 9.72386 5.5 10 5.5C10.2761 5.5 10.5 5.72386 10.5 6V6.5C10.5 8.98528 8.48528 11 6 11C3.51472 11 1.5 8.98528 1.5 6.5V6C1.5 5.72386 1.72386 5.5 2 5.5Z" fill="white"/>
<path fill-rule="evenodd" clip-rule="evenodd" d="M3.5 3.5C3.5 2.11929 4.61929 1 6 1C7.38071 1 8.5 2.11929 8.5 3.5V6.5C8.5 7.88071 7.38071 9 6 9C4.61929 9 3.5 7.88071 3.5 6.5V3.5Z" fill="white"/>
</svg>
