<svg width="12" height="12" viewBox="0 0 12 12" fill="none" xmlns="http://www.w3.org/2000/svg">
<path fill-rule="evenodd" clip-rule="evenodd" d="M6.12065 2H3.37935C2.97687 1.99999 2.64468 1.99999 2.37409 2.0221C2.09304 2.04506 1.83469 2.09434 1.59202 2.21799C1.2157 2.40973 0.909734 2.7157 0.717988 3.09202C0.594342 3.33469 0.54506 3.59304 0.522097 3.87409C0.499989 4.14468 0.499994 4.47686 0.5 4.87934V7.12065C0.499994 7.52313 0.499989 7.85532 0.522097 8.12591C0.54506 8.40696 0.594342 8.66531 0.717988 8.90798C0.909734 9.28431 1.2157 9.59027 1.59202 9.78201C1.83469 9.90566 2.09304 9.95494 2.37409 9.9779C2.64469 10 2.97687 10 3.37935 10H6.12064C6.52312 10 6.85532 10 7.12591 9.9779C7.40696 9.95494 7.66531 9.90566 7.90798 9.78201C8.28431 9.59027 8.59027 9.28431 8.78201 8.90798C8.90566 8.66531 8.95494 8.40696 8.9779 8.12591C8.99841 7.87493 8.99989 7.57097 8.99999 7.20707L9.97677 8.18384C10.0723 8.27945 10.1663 8.37342 10.2486 8.44237C10.3221 8.50388 10.4768 8.62723 10.6912 8.6441C10.9305 8.66294 11.1644 8.56606 11.3203 8.3835C11.4599 8.22003 11.4821 8.0234 11.4906 7.92795C11.5 7.82097 11.5 7.6881 11.5 7.55291V4.44703C11.5 4.31185 11.5 4.17896 11.4906 4.07198C11.4821 3.97653 11.4599 3.77991 11.3203 3.61643C11.1644 3.43388 10.9305 3.337 10.6912 3.35583C10.4768 3.3727 10.3221 3.49605 10.2486 3.55756C10.1663 3.6265 10.0724 3.72047 9.97679 3.81606L8.99999 4.79287C8.99989 4.429 8.99841 4.12506 8.9779 3.87409C8.95494 3.59304 8.90566 3.33469 8.78201 3.09202C8.59027 2.7157 8.28431 2.40973 7.90798 2.21799C7.66531 2.09434 7.40696 2.04506 7.12591 2.0221C6.85532 1.99999 6.52313 1.99999 6.12065 2Z" fill="white"/>
</svg>
